# AST/ASF file generated using VICON BodyLanguage
# -----------------------------------------------
:version 1.10
:name VICON
:units
  mass 1.0
  length 0.45
  angle deg
:documentation
   .ast/.asf automatically generated from VICON data using
   VICON BodyBuilder and BodyLanguage model FoxedUp or BRILLIANT.MOD
:root
   order TX TY TZ RX RY RZ
   axis XYZ
   position 0 0 0  
   orientation 0 0 0 
:bonedata
  begin
     id 1 
     name lhipjoint
     direction 0.621036 -0.695554 0.361275 
     length 2.46325 
     axis 0 0 0  XYZ
  end
  begin
     id 2 
     name lfemur
     direction 0.34202 -0.939693 0  
     length 6.54784  
     axis 0 0 20  XYZ
    dof rx ry rz
    limits (-160.0 20.0)
           (-70.0 70.0)
           (-60.0 70.0)
  end
  begin
     id 3 
     name ltibia
     direction 0.34202 -0.939693 0   
     length 7.84737   
     axis 0 0 20   XYZ
    dof rx
    limits (-10.0 170.0)
  end
  begin
     id 4 
     name lfoot
     direction 0.0790693 -0.217241 0.97291   
     length 2.59747   
     axis -90 7.62852e-016 20   XYZ
    dof rx rz
    limits (-45.0 90.0)
           (-70.0 20.0)
  end
  begin
     id 5 
     name ltoes
     direction 1.53572e-011 -4.21898e-011 1   
     length 1.29919   
     axis -90 7.62852e-016 20   XYZ
    dof rx
    limits (-90.0 20.0)
  end
  begin
     id 6 
     name rhipjoint
     direction -0.602353 -0.708375 0.367935   
     length 2.41867  
     axis 0 0 0  XYZ 
  end
  begin
     id 7 
     name rfemur
     direction -0.34202 -0.939693 0   
     length 6.92065   
     axis 0 0 -20   XYZ
    dof rx ry rz
    limits (-160.0 20.0)
           (-70.0 70.0)
           (-70.0 60.0)
  end
  begin
     id 8 
     name rtibia
     direction -0.34202 -0.939693 0   
     length 7.88883   
     axis 0 0 -20   XYZ
    dof rx
    limits (-10.0 170.0)
 end
 begin
     id 9 
     name rfoot
     direction -0.0768692 -0.211196 0.974416   
     length 2.43714  
     axis -90 -7.62852e-016 -20   XYZ
    dof rx rz
    limits (-45.0 90.0)
           (-20.0 70.0)
  end
  begin
     id 10 
     name rtoes
     direction -1.53575e-011 -4.21933e-011 1   
     length 1.22113   
     axis -90 -7.62852e-016 -20   XYZ
    dof rx
    limits (-90.0 20.0)
  end
  begin
     id 11 
     name lowerback
     direction 0.0197937 0.98943 -0.143655   
     length 2.16931   
     axis 0 0 0   XYZ
    dof rx ry rz
    limits (-20.0 45.0)
           (-30.0 30.0)
           (-30.0 30.0)
  end
  begin
     id 12 
     name upperback
     direction -0.00183968 0.999975 0.00684288   
     length 2.17221   
     axis 0 0 0   XYZ
    dof rx ry rz
    limits (-20.0 45.0)
           (-30.0 30.0)
           (-30.0 30.0)
  end
  begin
     id 13 
     name thorax
     direction -0.00950244 0.997208 0.0740685   
     length 2.22549   
     axis 0 0 0   XYZ
    dof rx ry rz
    limits (-20.0 45.0)
           (-30.0 30.0)
           (-30.0 30.0)
  end
  begin
     id 14 
     name lowerneck
     direction 0.0218238 0.996215 0.0841425   
     length 1.77269   
     axis 0 0 0   XYZ
    dof rx ry rz
    limits (-20.0 45.0)
           (-30.0 30.0)
           (-30.0 30.0)
  end
  begin
     id 15 
     name upperneck
     direction -0.00430652 0.994214 -0.107332   
     length 1.76534   
     axis 0 0 0   XYZ
    dof rx ry rz
    limits (-20.0 45.0)
           (-30.0 30.0)
           (-30.0 30.0)
  end
  begin
     id 16
     name head
     direction -0.00328946 0.998959 -0.0454998  
     length 1.82634  
     axis 0 0 0   XYZ
    dof rx ry rz
    limits (-20.0 45.0)
           (-30.0 30.0)
           (-30.0 30.0)
  end
  begin
     id 17 
     name lclavicle
     direction 0.970962 0.239191 0.00450212  
     length 3.84872  
     axis 0 0 0   XYZ
    dof ry rz
    limits (-20.0 10.0)
           (0.0 20.0)
  end
  begin
     id 18 
     name lhumerus
     direction 1 -4.48966e-011 5.74696e-028   
     length 5.22771   
     axis 180 -30 -90   XYZ
    dof rx ry rz
    limits (-60.0 90.0)
           (-90.0 90.0)
           (-90.0 90.0)
  end
  begin
     id 19
     name lradius
     direction 1 -4.4896e-011 4.25109e-027   
     length 3.45251   
     axis 180 -30 -90   XYZ
    dof rx
    limits (-10.0 170.0)
  end
  begin
     id 20
     name lwrist
     direction 1 -4.48971e-011 1.15382e-027   
     length 1.72626   
     axis -5.52449e-016 90 90   XYZ
    dof ry
    limits (-180.0 0.0)
 end
  begin
     id 21 
     name lhand
     direction 1 -4.49034e-011 2.30765e-027   
     length 0.552119   
     axis -1.47248e-015 90 90   XYZ
    dof rx rz
    limits (-90.0 90.0)
           (-45.0 45.0)
  end
  begin
     id 22 
     name lfingers
     direction 1 -4.48951e-011 4.61529e-027   
     length 0.445133   
     axis -2.94495e-015 90 90   XYZ
    dof rx
    limits (0.0 90.0)
  end
  begin
     id 23
     name lthumb
     direction 0.707107 -6.34991e-011 0.707107   
     length 0.639124   
     axis -90 45 2.85299e-015   XYZ
    dof rx rz
    limits (-45.0 45.0)
           (-45.0 45.0)
  end
  begin
     id 24 
     name rclavicle
     direction -0.97424 0.222511 -0.0366699   
     length 3.73439  
     axis 0 0 0   XYZ 
    dof ry rz
    limits (-10.0 20.0)
           (-20.0 0.0)
  end
  begin
     id 25 
     name rhumerus
     direction -1 -4.48956e-011 -4.97258e-028  
     length 5.2398   
     axis 180 30 90   XYZ
    dof rx ry rz
    limits (-90.0 60.0)
           (-90.0 90.0)
           (-90.0 90.0)
  end
  begin
     id 26 
     name rradius
     direction -1 -4.4897e-011 -1.72611e-027   
     length 3.48042   
     axis 180 30 90   XYZ
    dof rx
    limits (-10.0 170.0)
  end
  begin
     id 27 
     name rwrist
     direction -1 -4.48976e-011 1.15382e-027   
     length 1.74021   
     axis -5.52449e-016 -90 -90   XYZ
    dof ry
    limits (-180.0 0.0)
  end
  begin
     id 28
     name rhand
     direction -1 -4.48963e-011 2.30765e-027   
     length 0.618713   
     axis -1.47248e-015 -90 -90   XYZ
    dof rx rz
    limits (-90.0 90.0)
           (-45.0 45.0)
  end
  begin
     id 29
     name rfingers
     direction -1 -4.4888e-011 4.61529e-027   
     length 0.498823   
     axis -2.94495e-015 -90 -90   XYZ
    dof rx
    limits (0.0 90.0)
  end
  begin
     id 30
     name rthumb
     direction -0.707107 -6.34968e-011 0.707107   
     length 0.716213   
     axis -90 -45 -2.85299e-015   XYZ
    dof rx rz
    limits (-45.0 45.0)
           (-45.0 45.0)
  end
:hierarchy
  begin
    root lhipjoint rhipjoint lowerback
    lhipjoint lfemur
    lfemur ltibia
    ltibia lfoot
    lfoot ltoes
    rhipjoint rfemur
    rfemur rtibia
    rtibia rfoot
    rfoot rtoes
    lowerback upperback
    upperback thorax
    thorax lowerneck lclavicle rclavicle
    lowerneck upperneck
    upperneck head
    lclavicle lhumerus
    lhumerus lradius
    lradius lwrist
    lwrist lhand lthumb
    lhand lfingers
    rclavicle rhumerus
    rhumerus rradius
    rradius rwrist
    rwrist rhand rthumb
    rhand rfingers
  end

#!OML:ASF G:\JayActor3\Patient Classification 1\Patient 1\Session 5\male.ASF
:FULLY-SPECIFIED
:DEGREES
266
root -38.3923 18.4461 -5.39607 -54.7273 86.8501 -82.3851
lowerback 17.5009 -1.04141 2.6343
upperback 6.14559 -0.636074 -0.991699
thorax -3.27098 -0.150298 -2.42281
lowerneck 4.46351 0.274997 2.69433
upperneck -22.2326 1.71761 2.16542
head -7.56312 0.663014 0.0873435
rclavicle -7.95139e-015 -1.19271e-014
rhumerus -30.3991 -0.370873 -88.6317
rradius 32.816
rwrist 0.730559
rhand -21.4945 -9.62348
rfingers 7.12502
rthumb 4.89692 -39.5469
lclavicle -7.95139e-015 -1.19271e-014
lhumerus -31.8676 3.67865 83.2
lradius 34.9844
lwrist 24.111
lhand -19.9911 13.2309
lfingers 7.12502
lthumb 6.34841 43.1158
rfemur -41.0942 -0.910525 19.8008
rtibia 30.3506
rfoot -0.301914 -12.3958
rtoes 11.4507
lfemur -37.9154 10.1948 -21.1539
ltibia 24.3254
lfoot 13.8795 -5.42575
ltoes -30.4622
267
root -38.3698 18.4493 -5.41211 -53.4396 86.835 -81.0396
lowerback 17.4749 -1.0305 2.60532
upperback 6.15971 -0.627941 -1.01119
thorax -3.24177 -0.145603 -2.42864
lowerneck 4.48736 0.293935 2.71874
upperneck -22.2188 1.73434 2.11025
head -7.56204 0.673294 0.0638271
rclavicle -1.59028e-015 -1.07344e-014
rhumerus -30.3868 -0.439242 -88.6324
rradius 32.7684
rwrist 0.735736
rhand -21.5026 -9.61411
rfingers 7.12502
rthumb 4.88907 -39.5377
lclavicle -1.59028e-015 -1.07344e-014
lhumerus -31.8883 3.68653 83.1843
lradius 34.9528
lwrist 24.1164
lhand -20.0138 13.2349
lfingers 7.12502
lthumb 6.32653 43.1204
rfemur -41.034 -0.810772 19.7107
rtibia 30.4393
rfoot -0.119352 -12.449
rtoes 10.8145
lfemur -37.8428 10.0689 -21.2065
ltibia 24.4934
lfoot 13.6372 -5.52694
ltoes -30.634
268
root -38.3461 18.452 -5.42919 -51.9193 86.8084 -79.4317
lowerback 17.4757 -1.01917 2.58235
upperback 6.17493 -0.617372 -1.03565
thorax -3.22543 -0.139628 -2.4436
lowerneck 4.50481 0.31411 2.74183
upperneck -22.19 1.75148 2.05578
head -7.55486 0.683878 0.0408356
rclavicle 1.11319e-014 -3.57812e-015
rhumerus -30.3874 -0.501309 -88.6377
rradius 32.7269
rwrist 0.734959
rhand -21.5167 -9.59596
rfingers 7.12502
rthumb 4.87544 -39.5199
lclavicle 1.11319e-014 -3.57812e-015
lhumerus -31.9249 3.69747 83.1638
lradius 34.9221
lwrist 24.1119
lhand -20.041 13.2644
lfingers 7.12502
lthumb 6.30024 43.1507
rfemur -40.9495 -0.706469 19.6252
rtibia 30.5466
rfoot 0.0995001 -12.477
rtoes 10.0723
lfemur -37.7228 9.92441 -21.2477
ltibia 24.6579
lfoot 13.3679 -5.57748
ltoes -30.7405
269
root -38.3211 18.4541 -5.44714 -50.2936 86.7635 -77.689
lowerback 17.5097 -1.00867 2.57712
upperback 6.1855 -0.604318 -1.06655
thorax -3.23145 -0.132575 -2.47595
lowerneck 4.5171 0.334747 2.76679
upperneck -22.1417 1.76909 2.00679
head -7.54031 0.694076 0.0194215
rclavicle -3.18055e-015 4.37326e-015
rhumerus -30.4104 -0.562932 -88.6524
rradius 32.693
rwrist 0.73831
rhand -21.5308 -9.57044
rfingers 7.12502
rthumb 4.86183 -39.4947
lclavicle -3.18055e-015 4.37326e-015
lhumerus -31.9866 3.70092 83.1334
lradius 34.8968
lwrist 24.1008
lhand -20.0746 13.3107
lfingers 7.12502
lthumb 6.26778 43.1979
rfemur -40.8401 -0.586105 19.5518
rtibia 30.6751
rfoot 0.323486 -12.4886
rtoes 9.28206
lfemur -37.5553 9.77233 -21.2731
ltibia 24.8119
lfoot 13.0788 -5.5876
ltoes -30.8063
270
root -38.2943 18.4553 -5.46605 -48.4456 86.6904 -75.6852
lowerback 17.5674 -0.990996 2.57615
upperback 6.2055 -0.579656 -1.09395
thorax -3.23918 -0.119374 -2.50936
lowerneck 4.52528 0.355444 2.78243
upperneck -22.0868 1.78605 1.96266
head -7.52293 0.704328 0.00129326
rclavicle -2.10712e-014 -3.10104e-014
rhumerus -30.4423 -0.613738 -88.6616
rradius 32.6677
rwrist 0.741267
rhand -21.5428 -9.54724
rfingers 7.12502
rthumb 4.85027 -39.4717
lclavicle -2.10712e-014 -3.10104e-014
lhumerus -32.0506 3.72062 83.1063
lradius 34.8648
lwrist 24.0773
lhand -20.0981 13.3673
lfingers 7.12502
lthumb 6.24512 43.2552
rfemur -40.6971 -0.438794 19.4957
rtibia 30.8233
rfoot 0.565429 -12.4924
rtoes 8.33653
lfemur -37.3252 9.60199 -21.267
ltibia 24.9566
lfoot 12.775 -5.5126
ltoes -30.8188
